<svg xmlns="http://www.w3.org/2000/svg" xmlns:xlink="http://www.w3.org/1999/xlink" xmlns:inkscape="http://www.inkscape.org/namespaces/inkscape" version="1.1" width="726.02" height="358.805" viewBox="0 0 726.02 358.805">
<defs>
<clipPath id="clip_1">
<path transform="matrix(1,0,0,-1,0,358.805)" d="M0 358.805H726.02V0H0Z"/>
</clipPath>
</defs>
<g inkscape:groupmode="layer" inkscape:label="Layer 1">
<g clip-path="url(#clip_1)">
<path transform="matrix(1,0,0,-1,9.6123,341.52009)" d="M0 0C-3.514 1.473-6.719 3.683-9.612 6.627L-3.566 14.069C-1.577 11.666 .704 9.825 3.275 8.546 5.846 7.268 8.384 6.627 10.891 6.627 13.939 6.627 16.266 7.242 17.866 8.469 19.468 9.696 20.27 11.382 20.27 13.526 20.27 14.224 20.186 14.864 20.019 15.445 19.85 16.026 19.638 16.543 19.379 16.995 19.12 17.447 18.733 17.893 18.216 18.332 17.698 18.771 17.189 19.146 16.686 19.456 16.18 19.766 15.495 20.108 14.63 20.483 13.765 20.857 12.971 21.187 12.248 21.472 11.524 21.755 10.567 22.104 9.379 22.518 7.983 23.009 6.77 23.461 5.735 23.875 4.702 24.288 3.559 24.804 2.307 25.425 1.052 26.044-.02 26.671-.912 27.304-1.803 27.937-2.701 28.687-3.605 29.552-4.51 30.417-5.233 31.335-5.775 32.304-6.318 33.273-6.764 34.384-7.111 35.637-7.462 36.89-7.635 38.228-7.635 39.648-7.635 42.542-6.833 45.203-5.233 47.632-3.631 50.061-1.466 51.966 1.261 53.349 3.984 54.731 6.95 55.422 10.153 55.422 16.691 55.448 22.918 53.136 28.836 48.485L23.138 40.966C18.514 44.816 14.185 46.741 10.153 46.741 7.905 46.741 6.04 46.153 4.555 44.977 3.068 43.802 2.313 42.193 2.287 40.152 2.26 38.24 3.191 36.664 5.078 35.424 6.291 34.649 8.876 33.499 12.829 31.974 17.504 30.14 20.656 28.771 22.284 27.866 25.851 25.902 28.188 23.435 29.301 20.464 29.946 18.784 30.269 16.847 30.269 14.65 30.269 12.402 29.882 10.335 29.105 8.449 28.33 6.563 27.303 4.974 26.025 3.683 24.746 2.39 23.26 1.292 21.568 .388 19.875-.516 18.124-1.175 16.315-1.588 14.507-2.002 12.686-2.208 10.852-2.208 7.131-2.208 3.514-1.472 0 0"/>
<path transform="matrix(1,0,0,-1,60.1191,313.9058)" d="M0 0C-1.781-1.356-2.983-3.275-3.604-5.755H15.775C15.386-4.179 14.787-2.816 13.973-1.667 13.159-.517 12.1 .388 10.795 1.047 9.49 1.706 8.01 2.035 6.357 2.035 3.903 2.035 1.783 1.356 0 0M24.456-12.925H-3.759C-3.191-15.664-1.917-17.821 .059-19.397 2.036-20.974 4.445-21.762 7.287-21.762 11.293-21.762 14.509-20.237 16.938-17.188L23.138-22.498C21.382-24.746 19.128-26.528 16.376-27.847 13.624-29.164 10.439-29.823 6.822-29.823 3.074-29.823-.296-29.009-3.294-27.381-6.291-25.753-8.655-23.409-10.387-20.347-12.117-17.285-12.982-13.778-12.982-9.825-12.982-6.905-12.504-4.205-11.549-1.724-10.593 .756-9.274 2.862-7.596 4.593-5.916 6.324-3.915 7.674-1.589 8.643 .737 9.612 3.23 10.096 5.893 10.096 9.638 10.096 12.945 9.257 15.814 7.577 18.681 5.898 20.878 3.585 22.402 .64 23.927-2.306 24.689-5.652 24.689-9.398 24.689-10.819 24.611-11.995 24.456-12.925"/>
<path transform="matrix(1,0,0,-1,101.3242,341.2481)" d="M0 0C-2.996 1.653-5.342 3.998-7.033 7.034-8.728 10.07-9.573 13.539-9.573 17.44-9.573 21.342-8.72 24.811-7.014 27.846-5.309 30.882-2.938 33.24 .098 34.919 3.133 36.599 6.589 37.438 10.465 37.438 13.592 37.438 16.613 36.818 19.534 35.578 22.453 34.338 24.857 32.555 26.741 30.229L20.695 24.998C19.534 26.367 18.125 27.439 16.472 28.214 14.818 28.99 12.972 29.377 10.93 29.377 8.656 29.377 6.653 28.88 4.922 27.885 3.191 26.89 1.848 25.495 .891 23.7-.063 21.904-.542 19.843-.542 17.518-.542 15.167-.058 13.086 .91 11.278 1.881 9.469 3.236 8.067 4.98 7.073 6.725 6.078 8.721 5.581 10.968 5.581 11.795 5.581 12.615 5.652 13.431 5.793 14.243 5.936 15 6.136 15.697 6.395 16.394 6.653 17.053 6.957 17.674 7.305 18.294 7.654 18.861 8.035 19.379 8.449 19.896 8.862 20.361 9.301 20.773 9.767L26.896 4.34C25.113 2.325 22.771 .685 19.863-.582 16.956-1.848 13.72-2.48 10.155-2.48 6.383-2.48 2.997-1.654 0 0"/>
<path transform="matrix(1,0,0,-1,170.8984,304.3912)" d="M0 0V-38.717H-8.873V-33.679H-8.99C-10.515-35.514-12.312-36.916-14.377-37.884-16.443-38.853-18.628-39.337-20.928-39.337-23.124-39.337-25.08-39.047-26.799-38.466-28.519-37.884-30.029-36.986-31.334-35.772-32.639-34.558-33.641-32.923-34.337-30.869-35.035-28.815-35.383-26.38-35.383-23.564V0H-26.508V-21.161C-26.508-23.099-26.359-24.713-26.062-26.005-25.767-27.297-25.294-28.331-24.648-29.106-24.003-29.881-23.213-30.43-22.283-30.753-21.354-31.076-20.205-31.237-18.834-31.237-17.518-31.237-16.263-30.96-15.075-30.404-13.887-29.849-12.827-29.054-11.897-28.021-10.968-26.987-10.23-25.65-9.688-24.01-9.146-22.369-8.873-20.541-8.873-18.525V0Z"/>
<path transform="matrix(1,0,0,-1,204.2383,303.8482)" d="M0 0V-9.883C-1.01-9.806-1.9-9.767-2.676-9.767-4.872-9.767-6.777-10.258-8.392-11.239-10.008-12.221-11.221-13.546-12.036-15.212-12.849-16.878-13.255-18.771-13.255-20.89V-39.26H-22.131V-.543H-13.255V-6.356H-13.141C-11.616-4.289-9.813-2.707-7.732-1.608-5.653-.511-3.437 .039-1.085 .039-.57 .039-.208 .025 0 0"/>
<path transform="matrix(1,0,0,-1,0,358.805)" d="M212.227 54.414H221.10301V15.697002H212.227ZM212.458 61.914C211.295 63.063 210.714 64.452 210.714 66.079 210.714 67.708 211.295 69.096 212.458 70.246 213.621 71.396 215.043 71.971 216.723 71.971 218.351 71.971 219.751 71.389 220.927 70.226 222.102 69.064 222.69 67.681 222.69 66.079 222.69 65.02 222.419 64.039 221.876 63.135 221.333 62.23 220.604 61.513 219.687 60.983 218.771 60.454 217.78 60.189 216.723 60.189 215.043 60.189 213.621 60.764 212.458 61.914"/>
<path transform="matrix(1,0,0,-1,236.4727,340.4732)" d="M0 0C-1.9 2.17-2.849 5.374-2.849 9.611V28.525H-7.576V36.082H-2.849V48.95L6.026 49.918V36.082H17.42V28.525H6.026V10.425C6.026 8.487 6.33 7.105 6.937 6.278 7.543 5.452 8.48 5.038 9.747 5.038 11.478 5.038 13.389 5.594 15.483 6.705L17.808-.969C16.413-1.718 14.999-2.287 13.564-2.674 12.131-3.062 10.264-3.255 7.963-3.255 4.555-3.255 1.898-2.17 0 0"/>
<path transform="matrix(1,0,0,-1,296.9551,304.3912)" d="M0 0-21.276-54.414H-30.616L-23.641-36.547-39.375 0H-30.035L-19.339-26.122H-19.262L-9.301 0Z"/>
<path transform="matrix(1,0,0,-1,351.1279,332.39259)" d="M0 0C2.131 2.184 3.199 4.993 3.199 8.43 3.199 11.866 2.158 14.741 .078 17.053-2.001 19.365-4.618 20.521-7.771 20.521-9.321 20.521-10.773 20.238-12.131 19.669-13.486 19.101-14.669 18.306-15.676 17.286-16.684 16.265-17.479 14.986-18.061 13.449-18.642 11.911-18.932 10.238-18.932 8.43-18.932 4.993-17.898 2.184-15.831 0-13.765-2.184-11.091-3.275-7.808-3.275-4.733-3.275-2.132-2.184 0 0M11.725 28.001V-10.716H3.236V-5.523H3.121C.175-9.398-3.935-11.336-9.204-11.336-11.322-11.336-13.345-11.039-15.27-10.445-17.194-9.851-18.926-8.972-20.464-7.809-22-6.647-23.33-5.271-24.454-3.682-25.578-2.093-26.443-.258-27.052 1.822-27.659 3.901-27.962 6.117-27.962 8.469-27.962 11.336-27.484 14.023-26.529 16.53-25.572 19.036-24.268 21.167-22.614 22.925-20.96 24.682-18.983 26.064-16.684 27.072-14.385 28.079-11.917 28.583-9.282 28.583-4.243 28.583-.251 26.839 2.693 23.351H2.849V28.001Z"/>
<path transform="matrix(1,0,0,-1,406.4805,307.8599)" d="M0 0C2.519-2.7 3.778-6.854 3.778-12.46V-35.288H-5.097V-14.747C-5.097-12.731-5.277-11.026-5.64-9.631-6.001-8.235-6.556-7.131-7.306-6.317-8.055-5.503-8.928-4.916-9.922-4.554-10.917-4.192-12.111-4.011-13.508-4.011-15.005-4.011-16.374-4.27-17.614-4.786-18.855-5.303-19.915-6.052-20.792-7.034-21.671-8.016-22.35-9.256-22.828-10.755-23.305-12.253-23.544-13.933-23.544-15.793V-35.249H-32.419V3.469H-23.544V-1.84H-23.429C-21.8 .071-19.862 1.531-17.614 2.539-15.366 3.546-12.977 4.05-10.444 4.05-6.001 4.05-2.519 2.7 0 0"/>
<path transform="matrix(1,0,0,-1,447.0459,332.4122)" d="M0 0C2.171 2.171 3.256 4.987 3.256 8.449 3.256 11.912 2.204 14.792 .098 17.092-2.009 19.391-4.714 20.541-8.021 20.541-9.571 20.541-11.025 20.257-12.381 19.688-13.738 19.12-14.921 18.326-15.929 17.305-16.936 16.285-17.731 15.005-18.311 13.468-18.892 11.931-19.184 10.258-19.184 8.449-19.184 5.013-18.149 2.203-16.084 .02-14.017-2.164-11.341-3.255-8.061-3.255-4.857-3.255-2.17-2.17 0 0M11.783 47.749V-10.696H3.295V-5.503H3.141C.195-9.379-4.004-11.316-9.456-11.316-11.574-11.316-13.597-11.02-15.521-10.425-17.445-9.831-19.178-8.953-20.714-7.79-22.252-6.627-23.582-5.251-24.706-3.662-25.83-2.073-26.696-.239-27.303 1.841-27.909 3.921-28.215 6.137-28.215 8.488-28.215 11.356-27.736 14.043-26.779 16.549-25.824 19.055-24.52 21.187-22.865 22.944-21.212 24.701-19.234 26.083-16.936 27.091-14.635 28.099-12.169 28.603-9.532 28.603-4.314 28.603-.231 26.858 2.713 23.371H2.907V47.749Z"/>
<path transform="matrix(1,0,0,-1,522.1689,322.68409)" d="M0 0-8.566 24.417H-8.643L-17.209 0ZM2.907-8.294H-20.116L-24.34-20.424H-34.339L-13.294 35.966H-3.954L17.208-20.424H7.17Z"/>
<path transform="matrix(1,0,0,-1,0,358.805)" d="M548.416 72.087H558.026V15.695999H548.416Z"/>
<path transform="matrix(1,0,0,-1,593.4189,286.7178)" d="M0 0H9.573V-47.787H35.694V-56.391H0Z"/>
<path transform="matrix(1,0,0,-1,663.0898,332.39259)" d="M0 0C2.132 2.184 3.199 4.993 3.199 8.43 3.199 11.866 2.159 14.741 .078 17.053-2.001 19.365-4.618 20.521-7.771 20.521-9.32 20.521-10.773 20.238-12.13 19.669-13.485 19.101-14.668 18.306-15.676 17.286-16.683 16.265-17.479 14.986-18.06 13.449-18.641 11.911-18.931 10.238-18.931 8.43-18.931 4.993-17.898 2.184-15.831 0-13.764-2.184-11.09-3.275-7.808-3.275-4.732-3.275-2.131-2.184 0 0M11.725 28.001V-10.716H3.236V-5.523H3.122C.176-9.398-3.934-11.336-9.204-11.336-11.321-11.336-13.344-11.039-15.269-10.445-17.194-9.851-18.925-8.972-20.463-7.809-21.999-6.647-23.33-5.271-24.454-3.682-25.578-2.093-26.443-.258-27.052 1.822-27.658 3.901-27.962 6.117-27.962 8.469-27.962 11.336-27.483 14.023-26.528 16.53-25.572 19.036-24.267 21.167-22.614 22.925-20.959 24.682-18.983 26.064-16.683 27.072-14.384 28.079-11.916 28.583-9.281 28.583-4.243 28.583-.25 26.839 2.693 23.351H2.85V28.001Z"/>
<path transform="matrix(1,0,0,-1,713.8887,332.39259)" d="M0 0C2.067 2.184 3.102 4.993 3.102 8.43 3.102 12.073 2.036 14.999-.098 17.208-2.229 19.417-4.883 20.521-8.061 20.521-9.379 20.521-10.626 20.321-11.8 19.921-12.977 19.521-14.017 18.958-14.921 18.235-15.825 17.512-16.613 16.653-17.284 15.658-17.957 14.663-18.467 13.552-18.816 12.325-19.165 11.097-19.34 9.799-19.34 8.43-19.34 4.968-18.255 2.151-16.084-.02-13.914-2.189-11.227-3.275-8.021-3.275-4.741-3.275-2.067-2.184 0 0M-.523 27.614C1.402 26.968 3.127 26.051 4.651 24.862 6.177 23.674 7.501 22.259 8.625 20.619 9.749 18.978 10.614 17.117 11.221 15.038 11.827 12.958 12.131 10.768 12.131 8.469 12.131 5.523 11.652 2.81 10.697 .33 9.741-2.151 8.436-4.244 6.783-5.949 5.13-7.654 3.146-8.979 .834-9.922-1.478-10.865-3.965-11.336-6.627-11.336-12.078-11.336-16.276-9.398-19.223-5.523H-19.379V-10.716H-27.865V47.729H-18.989V23.351H-18.797C-15.851 26.839-11.769 28.583-6.55 28.583-4.457 28.583-2.448 28.26-.523 27.614"/>
<path transform="matrix(1,0,0,-1,42.4648,243.4043)" d="M0 0C-15.554 6.546-29.708 16.309-42.465 29.289L-5.538 74.775C3.524 65.6 13.009 58.802 22.911 54.382 32.814 49.962 41.905 47.752 50.187 47.752 57.235 47.752 62.495 49.291 65.964 52.368 69.433 55.445 71.167 59.166 71.167 63.53 71.167 68.565 69.181 72.677 65.208 75.867 61.236 79.056 52.928 82.776 40.283 87.028 34.353 89.042 29.065 90.973 24.422 92.819 19.778 94.666 14.799 96.959 9.483 99.701 4.169 102.442-.503 105.268-4.532 108.177-8.56 111.086-12.505 114.611-16.364 118.751-20.226 122.892-23.358 127.284-25.765 131.927-28.17 136.571-30.128 141.914-31.639 147.957-33.149 153.999-33.905 160.489-33.905 167.427-33.905 181.079-30.408 193.471-23.415 204.605-16.421 215.739-6.714 224.551 5.707 231.041 18.128 237.531 32.06 240.944 47.501 241.279 63.726 241.615 79.196 238.901 93.911 233.139 108.625 227.376 121.969 219.235 133.942 208.717L97.687 162.056C87.393 170.001 78.636 175.651 71.419 179.008 64.202 182.365 57.46 184.043 51.193 184.043 45.599 184.043 41.347 182.757 38.437 180.183 35.528 177.609 34.073 174.085 34.073 169.609 34.073 165.133 36.144 161.077 40.283 157.44 44.424 153.803 52.368 149.747 64.118 145.271 84.707 137.326 98.358 131.563 105.072 127.983 119.843 120.038 129.745 110.191 134.781 98.442 138.138 90.721 139.816 81.601 139.816 71.083 139.816 62.579 138.837 54.69 136.88 47.417 134.921 40.143 132.235 33.793 128.823 28.366 125.409 22.939 121.298 18.043 116.485 13.679 111.675 9.315 106.583 5.679 101.212 2.769 95.841-.14 90.078-2.546 83.924-4.448 77.769-6.351 71.727-7.721 65.796-8.561 59.866-9.399 53.879-9.819 47.837-9.819 31.499-9.819 15.554-6.546 0 0"/>
<path transform="matrix(1,0,0,-1,557.3467,.00048828127)" d="M0 0H68.165V-192.843H168.673V-253.009H0Z"/>
<path transform="matrix(1,0,0,-1,0,358.805)" d="M477.21 278.668H543.509V105.653H477.21Z"/>
<path transform="matrix(1,0,0,-1,0,358.805)" d="M543.509 292.506H477.20997V358.80503H543.509Z" fill="#1a05a2"/>
<path transform="matrix(1,0,0,-1,392.2607,126.6055)" d="M0 0-219.149-126.53-73.05 126.53Z" fill="#1a05a2"/>
<path transform="matrix(1,0,0,-1,465.3711,253.22559)" d="M0 0-165.45 57.32-66.181 114.63Z" fill="#f67d31"/>
</g>
</g>
</svg>
