<svg xmlns="http://www.w3.org/2000/svg" xmlns:xlink="http://www.w3.org/1999/xlink" xmlns:inkscape="http://www.inkscape.org/namespaces/inkscape" version="1.1" width="675.454" height="327.693" viewBox="0 0 675.454 327.693">
<defs>
<clipPath id="clip_1">
<path transform="matrix(1,0,0,-1,0,327.693)" d="M0 327.693H675.454V0H0Z"/>
</clipPath>
</defs>
<g inkscape:groupmode="layer" inkscape:label="Layer 1">
<g clip-path="url(#clip_1)">
<path transform="matrix(1,0,0,-1,7.6774,325.9285)" d="M0 0C-2.807 1.177-5.366 2.94-7.677 5.294L-2.848 11.238C-1.259 9.318 .563 7.847 2.616 6.826 4.669 5.804 6.697 5.294 8.699 5.294 11.134 5.294 12.992 5.784 14.271 6.764 15.551 7.745 16.191 9.091 16.191 10.805 16.191 11.362 16.124 11.872 15.989 12.337 15.855 12.801 15.685 13.214 15.479 13.575 15.272 13.936 14.963 14.292 14.55 14.643 14.137 14.994 13.729 15.293 13.327 15.541 12.925 15.788 12.378 16.062 11.687 16.361 10.995 16.661 10.361 16.924 9.783 17.15 9.205 17.377 8.441 17.656 7.492 17.986 6.377 18.378 5.408 18.739 4.582 19.069 3.756 19.4 2.843 19.813 1.842 20.308 .841 20.803-.015 21.304-.727 21.81-1.439 22.315-2.157 22.914-2.879 23.605-3.601 24.296-4.179 25.029-4.612 25.803-5.046 26.577-5.402 27.464-5.68 28.465-5.959 29.466-6.099 30.535-6.099 31.669-6.099 33.981-5.459 36.107-4.179 38.047-2.899 39.987-1.171 41.508 1.006 42.613 3.184 43.717 5.552 44.27 8.111 44.27 13.333 44.29 18.306 42.443 23.032 38.728L18.482 32.722C14.788 35.797 11.331 37.335 8.111 37.335 6.315 37.335 4.824 36.865 3.638 35.926 2.451 34.987 1.847 33.702 1.827 32.072 1.806 30.544 2.549 29.286 4.056 28.295 5.025 27.676 7.089 26.757 10.247 25.54 13.982 24.075 16.5 22.98 17.8 22.259 20.648 20.69 22.516 18.719 23.404 16.346 23.92 15.004 24.178 13.457 24.178 11.702 24.178 9.906 23.868 8.255 23.249 6.749 22.63 5.242 21.81 3.973 20.788 2.94 19.766 1.91 18.58 1.032 17.228 .31 15.876-.413 14.478-.939 13.033-1.269 11.589-1.599 10.133-1.765 8.668-1.765 5.696-1.765 2.807-1.177 0 0"/>
<path transform="matrix(1,0,0,-1,40.3776,282.1546)" d="M0 0H28.326V-6.873H7.646V-19.287H24.363V-26.159H7.646V-38.171H29.657V-45.043H0Z"/>
<path transform="matrix(1,0,0,-1,90.7843,326.6717)" d="M0 0C-2.25 .619-4.329 1.563-6.238 2.833-8.147 4.102-9.803 5.629-11.207 7.415-12.61 9.2-13.704 11.325-14.488 13.792-15.272 16.258-15.664 18.936-15.664 21.825-15.664 24.405-15.35 26.855-14.72 29.177-14.091 31.499-13.136 33.62-11.856 35.54-10.577 37.458-9.04 39.125-7.244 40.539-5.448 41.952-3.328 43.052-.882 43.836 1.563 44.62 4.21 45.013 7.058 45.013 10.319 45.013 13.503 44.3 16.608 42.875 19.715 41.452 22.444 39.285 24.797 36.375L19.163 31.607C17.656 33.485 15.845 34.982 13.729 36.097 11.614 37.21 9.391 37.768 7.058 37.768 4.169 37.768 1.61 37.108-.619 35.787-2.848 34.466-4.582 32.598-5.82 30.184-7.058 27.769-7.677 24.983-7.677 21.825-7.677 18.792-7.048 16.093-5.789 13.73-4.53 11.367-2.781 9.535-.542 8.235 1.697 6.934 4.231 6.284 7.058 6.284 9.494 6.284 11.743 6.837 13.807 7.94 15.871 9.044 17.656 10.537 19.163 12.414L24.797 7.616C22.733 5.015 20.2 2.941 17.197 1.393 14.194-.155 10.814-.929 7.058-.929 4.603-.929 2.25-.619 0 0"/>
<path transform="matrix(1,0,0,-1,133.3776,326.4237)" d="M0 0C-2.198 .846-4.082 2.069-5.65 3.668-7.218 5.268-8.436 7.264-9.303 9.658-10.169 12.053-10.604 14.746-10.604 17.739V44.269H-2.957V18.327C-2.957 15.933-2.554 13.807-1.75 11.95-.944 10.092 .237 8.632 1.795 7.568 3.353 6.506 5.185 5.974 7.29 5.974 10.365 5.974 12.857 7.079 14.766 9.287 16.675 11.496 17.629 14.509 17.629 18.327V44.269H25.276V17.739C25.276 11.876 23.677 7.244 20.478 3.838 17.279 .433 12.883-1.27 7.29-1.27 4.627-1.27 2.198-.846 0 0"/>
<path transform="matrix(1,0,0,-1,176.6818,304.2586)" d="M0 0H7.306C10.298 0 12.569 .691 14.116 2.074 15.664 3.458 16.438 5.314 16.438 7.646 16.438 10.02 15.69 11.878 14.194 13.219 12.698 14.56 10.577 15.231 7.833 15.231H0ZM16.81-22.939 6.068-6.873H0V-22.939H-7.646V22.104H8.978C11.063 22.104 12.956 21.867 14.659 21.392 16.361 20.917 17.811 20.246 19.008 19.379 20.205 18.513 21.206 17.47 22.011 16.253 22.815 15.035 23.409 13.693 23.791 12.229 24.172 10.763 24.363 9.185 24.363 7.492 24.363 3.88 23.501 .935 21.778-1.346 20.055-3.626 17.625-5.2 14.488-6.068V-6.191L26.004-22.939Z"/>
<path transform="matrix(1,0,0,-1,0,327.693)" d="M210.838 45.538H218.515V.49499894H210.838Z"/>
<path transform="matrix(1,0,0,-1,239.1056,289.0277)" d="M0 0H-12.786V6.873H20.556V0H7.646V-38.17H0Z"/>
<path transform="matrix(1,0,0,-1,301.7721,282.1546)" d="M0 0-15.138-25.138V-45.043H-22.815V-25.138L-37.86 0H-29.1L-19.039-17.46H-18.853L-8.854 0Z"/>
<path transform="matrix(1,0,0,-1,348.6242,310.8826)" d="M0 0-6.842 19.502H-6.904L-13.745 0ZM2.322-6.625H-16.066L-19.441-16.315H-27.428L-10.618 28.728H-3.158L13.745-16.315H5.727Z"/>
<path transform="matrix(1,0,0,-1,406.6798,282.1546)" d="M0 0V-45.043H-7.801L-29.595-13.188H-29.719V-45.043H-37.366V0H-29.781L-7.801-32.319H-7.646V0Z"/>
<path transform="matrix(1,0,0,-1,431.7672,320.3255)" d="M0 0C2.332 0 4.489 .392 6.47 1.177 8.451 1.961 10.117 3.044 11.469 4.428 12.821 5.81 13.874 7.461 14.627 9.381 15.38 11.3 15.757 13.364 15.757 15.572 15.757 18.585 15.112 21.289 13.822 23.683 12.532 26.077 10.716 27.945 8.373 29.286 6.032 30.627 3.385 31.298 .434 31.298H-6.408V0ZM-14.055 38.171H.278C3.787 38.171 7.006 37.614 9.937 36.499 12.868 35.384 15.334 33.836 17.335 31.855 19.337 29.874 20.891 27.491 21.995 24.704 23.099 21.918 23.651 18.875 23.651 15.572 23.651 12.27 23.115 9.236 22.041 6.471 20.968 3.705 19.451 1.336 17.491-.634 15.53-2.605 13.089-4.138 10.169-5.231 7.249-6.326 4.014-6.872 .464-6.872H-14.055Z"/>
<path transform="matrix(1,0,0,-1,504.8727,310.8826)" d="M0 0-6.843 19.502H-6.904L-13.745 0ZM2.321-6.625H-16.067L-19.441-16.315H-27.429L-10.619 28.728H-3.158L13.744-16.315H5.727Z"/>
<path transform="matrix(1,0,0,-1,0,327.693)" d="M525.841 45.538H533.519V.49499894H525.841Z"/>
<path transform="matrix(1,0,0,-1,561.7897,282.1546)" d="M0 0H7.646V-38.171H28.512V-45.043H0Z"/>
<path transform="matrix(1,0,0,-1,622.197,310.8826)" d="M0 0-6.842 19.502H-6.904L-13.745 0ZM2.322-6.625H-16.066L-19.441-16.315H-27.429L-10.618 28.728H-3.158L13.745-16.315H5.728Z"/>
<path transform="matrix(1,0,0,-1,665.0212,318.6995)" d="M0 0C1.63 1.062 2.445 2.626 2.445 4.689 2.445 6.732 1.683 8.338 .155 9.503-1.372 10.669-3.57 11.252-6.438 11.252H-14.487V-1.626H-6.594C-3.828-1.605-1.63-1.063 0 0M-14.487 17.877H-7.182C-6.191 17.877-5.257 17.991-4.381 18.218-3.503 18.445-2.703 18.791-1.98 19.255-1.259 19.719-.686 20.343-.264 21.128 .16 21.912 .372 22.82 .372 23.852 .372 25.688-.304 27.123-1.656 28.155-3.008 29.187-5.107 29.692-7.956 29.672H-14.487ZM8.034 11.314C9.633 9.354 10.433 6.867 10.433 3.854 10.433 2.038 10.128 .381 9.52-1.115 8.91-2.611 8.008-3.911 6.811-5.015 5.613-6.12 4.065-6.976 2.167-7.585 .269-8.194-1.898-8.498-4.334-8.498H-22.134V36.545H-6.47C-1.764 36.545 1.853 35.622 4.381 33.774 6.908 31.927 8.173 29.187 8.173 25.555 8.173 23.347 7.621 21.319 6.517 19.472 5.412 17.625 3.767 16.268 1.579 15.401V15.277C4.283 14.596 6.434 13.275 8.034 11.314"/>
<path transform="matrix(1,0,0,-1,42.465,243.33229)" d="M0 0C-15.554 6.546-29.708 16.309-42.465 29.289L-5.538 74.775C3.524 65.6 13.009 58.802 22.911 54.382 32.814 49.962 41.905 47.752 50.187 47.752 57.235 47.752 62.495 49.291 65.964 52.368 69.433 55.445 71.167 59.166 71.167 63.53 71.167 68.565 69.181 72.677 65.208 75.867 61.236 79.056 52.928 82.776 40.283 87.028 34.353 89.042 29.065 90.973 24.422 92.819 19.778 94.666 14.799 96.959 9.483 99.701 4.169 102.442-.503 105.268-4.532 108.177-8.56 111.086-12.505 114.611-16.364 118.751-20.226 122.892-23.358 127.284-25.765 131.927-28.17 136.571-30.128 141.914-31.639 147.957-33.149 153.999-33.905 160.489-33.905 167.427-33.905 181.079-30.408 193.471-23.415 204.605-16.421 215.739-6.714 224.551 5.707 231.041 18.128 237.531 32.06 240.944 47.501 241.279 63.726 241.615 79.196 238.901 93.911 233.139 108.625 227.376 121.969 219.235 133.942 208.717L97.687 162.056C87.393 170 78.636 175.651 71.419 179.008 64.202 182.365 57.46 184.043 51.193 184.043 45.599 184.043 41.347 182.757 38.437 180.183 35.528 177.609 34.073 174.085 34.073 169.609 34.073 165.133 36.144 161.077 40.283 157.44 44.424 153.803 52.368 149.747 64.118 145.271 84.707 137.326 98.358 131.563 105.072 127.983 119.843 120.038 129.745 110.191 134.781 98.442 138.138 90.721 139.816 81.601 139.816 71.083 139.816 62.579 138.837 54.69 136.88 47.417 134.921 40.143 132.235 33.793 128.823 28.366 125.409 22.939 121.298 18.043 116.485 13.679 111.675 9.315 106.583 5.679 101.212 2.769 95.841-.14 90.078-2.546 83.924-4.448 77.769-6.351 71.727-7.721 65.796-8.561 59.866-9.399 53.879-9.819 47.837-9.819 31.499-9.819 15.554-6.546 0 0"/>
<path transform="matrix(1,0,0,-1,506.7799,-.00021362305)" d="M0 0H68.165V-192.843H168.673V-253.009H0Z"/>
<path transform="matrix(1,0,0,-1,0,327.693)" d="M426.644 240.693H492.94203V74.541H426.644Z"/>
<path transform="matrix(1,0,0,-1,0,327.693)" d="M492.942 261.394H426.64399V327.69303H492.942Z" fill="#7a5392"/>
<path transform="matrix(1,0,0,-1,269.319,164.5521)" d="M0 0V-88.6H-105.613L0 11.563Z" fill="#7a5392"/>
<path transform="matrix(1,0,0,-1,280.2638,2.0252076)" d="M0 0V-251.126H139.542Z" fill="#7a5392"/>
</g>
</g>
</svg>
